# xmcd
#
# Track frame offsets: 
#        150
#        11431
#        22087
#        33790
#        44448
#        57232
#        68496
#        78145
#        89801
#        102438
#        113051
#
# Disc length: 1643 seconds
#
# Revision: 0
# Processed by: cddbd v1.5.2PL0 Copyright (c) Steve Scherf et al.
# Submitted via: ExactAudioCopy v0.95b2
#
DISCID=8306690b
DTITLE=The Artistics - The Articulate Artistics
DYEAR=1968
DGENRE=Soul
TTITLE0=You Left Me
TTITLE1=Hard To Carry On
TTITLE2=A Man With Feeling
TTITLE3=One Last Chance
TTITLE4=That's What My Lady Says
TTITLE5=Faded Memories
TTITLE6=Lonely Old World
TTITLE7=The Other Side Of Sadness
TTITLE8=Ain't That The Way It Goes
TTITLE9=Have No Pity
TTITLE10=Trouble, Heartache And Pain
EXTD=
EXTT0=
EXTT1=
EXTT2=
EXTT3=
EXTT4=
EXTT5=
EXTT6=
EXTT7=
EXTT8=
EXTT9=
EXTT10=
PLAYORDER=
